<svg width="187" height="69" viewBox="0 0 187 69" fill="none" xmlns="http://www.w3.org/2000/svg">
<rect x="0.5" y="0.5" width="68" height="68" rx="34" fill="#6B6AFD"/>
<rect x="0.5" y="0.5" width="68" height="68" rx="34" stroke="white"/>
<path d="M44.3237 33.7389H42.2537C41.8884 29.8728 38.8037 26.778 34.9377 26.4228V24.3528C34.9377 23.9368 34.5927 23.5918 34.1766 23.5918C33.7606 23.5918 33.4156 23.9368 33.4156 24.3528V26.4228C29.5496 26.7881 26.4547 29.8728 26.0996 33.7389H24.0296C23.6136 33.7389 23.2686 34.0839 23.2686 34.4999C23.2686 34.9159 23.6136 35.2609 24.0296 35.2609H26.0996C26.4649 39.1269 29.5496 42.2218 33.4156 42.5769V44.6469C33.4156 45.063 33.7606 45.408 34.1766 45.408C34.5927 45.408 34.9377 45.063 34.9377 44.6469V42.5769C38.8037 42.2116 41.8986 39.1269 42.2537 35.2609H44.3237C44.7397 35.2609 45.0847 34.9159 45.0847 34.4999C45.0847 34.0839 44.7397 33.7389 44.3237 33.7389ZM34.1766 37.6658C32.4313 37.6658 31.0108 36.2452 31.0108 34.4999C31.0108 32.7546 32.4313 31.334 34.1766 31.334C35.9219 31.334 37.3425 32.7546 37.3425 34.4999C37.3425 36.2452 35.9219 37.6658 34.1766 37.6658Z" fill="white"/>
<rect x="59.5" y="0.5" width="68" height="68" rx="34" fill="#6B6AFD"/>
<rect x="59.5" y="0.5" width="68" height="68" rx="34" stroke="white"/>
<path d="M99.1733 33.2012H96.0378V25.8953C96.0378 24.1906 95.1144 23.8456 93.9881 25.1241L93.1763 26.0475L86.3068 33.8607C85.3631 34.9262 85.7588 35.7988 87.1794 35.7988H90.3149V43.1047C90.3149 44.8094 91.2383 45.1544 92.3646 43.8759L93.1763 42.9525L100.046 35.1393C100.99 34.0738 100.594 33.2012 99.1733 33.2012Z" fill="white"/>
<rect x="118.5" y="0.5" width="68" height="68" rx="34" fill="#6B6AFD"/>
<rect x="118.5" y="0.5" width="68" height="68" rx="34" stroke="white"/>
<path d="M156.428 24.3528H147.925C144.231 24.3528 142.029 26.5547 142.029 30.2482V38.7413C142.029 42.445 144.231 44.6469 147.925 44.6469H156.418C160.111 44.6469 162.313 42.445 162.313 38.7515V30.2482C162.323 26.5547 160.122 24.3528 156.428 24.3528ZM157.027 32.166L151.273 37.9194C151.131 38.0615 150.938 38.1426 150.735 38.1426C150.533 38.1426 150.34 38.0615 150.198 37.9194L147.326 35.0478C147.032 34.7535 147.032 34.2665 147.326 33.9722C147.62 33.6779 148.107 33.6779 148.402 33.9722L150.735 36.306L155.951 31.0904C156.245 30.7962 156.732 30.7962 157.027 31.0904C157.321 31.3847 157.321 31.8616 157.027 32.166Z" fill="white"/>
</svg>
